HIERARCHY
ROOT RootJoint
{
    OFFSET   0.000000   0.000000   0.000000
    CHANNELS 6 Xposition Yposition Zposition Xrotation Yrotation Zrotation
    JOINT pelvis_lowerback
    {
        OFFSET   0.000000   0.093605   0.000000
        CHANNELS 3 Xrotation Yrotation Zrotation
        JOINT lowerback_torso
        {
            OFFSET   0.000000   0.100000   0.000000
            CHANNELS 3 Xrotation Yrotation Zrotation
            JOINT torso_head
            {
                OFFSET   0.000000   0.282350   0.000000
                CHANNELS 3 Xrotation Yrotation Zrotation
                End Site
                {
                    OFFSET   0.000000   0.192650   0.000000
                }
            }
            JOINT rTorso_Clavicle
            {
                OFFSET  -0.001000   0.157500   0.000000
                CHANNELS 3 Xrotation Yrotation Zrotation
                JOINT rShoulder
                {
                    OFFSET  -0.117647   0.000000   0.000000
                    CHANNELS 3 Xrotation Yrotation Zrotation
                    JOINT rElbow
                    {
                        OFFSET  -0.245000   0.000000   0.000000
                        CHANNELS 3 Xrotation Yrotation Zrotation
                        JOINT rWrist
                        {
                            OFFSET  -0.240000   0.000000   0.000000
                            CHANNELS 3 Xrotation Yrotation Zrotation
                            End Site
                            {
                                OFFSET  -0.116353  -0.002500   0.000000
                            }
                        }
                    }
                }
            }
            JOINT lTorso_Clavicle
            {
                OFFSET   0.001000   0.157500   0.000000
                CHANNELS 3 Xrotation Yrotation Zrotation
                JOINT lShoulder
                {
                    OFFSET   0.117647   0.000000   0.000000
                    CHANNELS 3 Xrotation Yrotation Zrotation
                    JOINT lElbow
                    {
                        OFFSET   0.245000   0.000000   0.000000
                        CHANNELS 3 Xrotation Yrotation Zrotation
                        JOINT lWrist
                        {
                            OFFSET   0.240000   0.000000   0.000000
                            CHANNELS 3 Xrotation Yrotation Zrotation
                            End Site
                            {
                                OFFSET   0.116353  -0.002500   0.000000
                            }
                        }
                    }
                }
            }
        }
    }
    JOINT rHip
    {
        OFFSET  -0.100000  -0.051395   0.000000
        CHANNELS 3 Xrotation Yrotation Zrotation
        JOINT rKnee
        {
            OFFSET   0.000000  -0.410000   0.000000
            CHANNELS 3 Xrotation Yrotation Zrotation
            JOINT rAnkle
            {
                OFFSET   0.000000  -0.390000   0.000000
                CHANNELS 3 Xrotation Yrotation Zrotation
                JOINT rToeJoint
                {
                    OFFSET   0.000000  -0.050000   0.130000
                    CHANNELS 3 Xrotation Yrotation Zrotation
                    End Site
                    {
                        OFFSET  -0.010000   0.002000   0.060000
                    }
                }
            }
        }
    }
    JOINT lHip
    {
        OFFSET   0.100000  -0.051395   0.000000
        CHANNELS 3 Xrotation Yrotation Zrotation
        JOINT lKnee
        {
            OFFSET   0.000000  -0.410000   0.000000
            CHANNELS 3 Xrotation Yrotation Zrotation
            JOINT lAnkle
            {
                OFFSET   0.000000  -0.390000   0.000000
                CHANNELS 3 Xrotation Yrotation Zrotation
                JOINT lToeJoint
                {
                    OFFSET   0.000000  -0.050000   0.130000
                    CHANNELS 3 Xrotation Yrotation Zrotation
                    End Site
                    {
                        OFFSET   0.010000   0.002000   0.060000
                    }
                }
            }
        }
    }
}
MOTION
Frames: 8
Frame Time:   0.008333
 -2.780282   0.473706   5.722315  45.974168 -15.017384  18.910750  34.642795  -6.254961  -6.708513  -1.056688  -2.435954  -2.910079  -8.761286  -3.768848  -3.816996  -9.423771  33.294647   9.723672 -13.709736  32.563935  25.024995  -0.000920   5.911058   0.000749  -2.317557  10.830020 -52.814116  -0.202995 -44.999892  -3.043142   1.583831 -24.698697 -14.063338  -0.000474 -20.630671   0.000233  10.015012   8.752574  90.126917 -30.974909  10.056957 -12.956734 100.257428  -0.001200   0.000167  -3.715230   5.829257  -0.876335  -0.927921   0.000109  -0.000067 -35.049615  -3.707217  -5.114233 100.829735   0.000158   0.000129  -3.220832  -0.459951   0.020769   4.795749  -0.002312   0.001506
 -2.780388   0.473767   5.721295  45.956683 -15.233663  19.002186  34.881879  -6.162206  -6.691748  -1.169585  -2.350603  -3.007517  -8.775754  -3.684365  -3.814442  -9.486624  33.494928   9.804449 -13.579117  32.594439  24.816986  -0.000840   5.707841   0.000761  -2.318789  10.727882 -53.691262  -0.427657 -44.999211  -3.251337   1.667246 -24.600835 -13.891471  -0.000562 -20.778391   0.000144  10.012063   8.768474  90.101141 -31.126739  10.133153 -12.895065 100.633036  -0.001577   0.000255  -3.660453   5.915784  -0.917350  -0.905446   0.000053  -0.000032 -35.048107  -3.455470  -5.027068 101.201896   0.000245   0.000267  -3.278345  -0.566582  -0.002851   4.118990  -0.002187   0.001523
 -2.780543   0.473834   5.720131  45.929063 -15.442394  19.087713  35.136733  -6.078142  -6.674553  -1.278707  -2.270985  -3.107000  -8.797922  -3.604183  -3.815323  -9.559932  33.692657   9.880243 -13.460348  32.628890  24.611681  -0.000744   5.519827   0.000762  -2.332013  10.628755 -54.532632  -0.652503 -44.998130  -3.441336   1.742898 -24.503334 -13.711710  -0.000617 -20.900830   0.000076  10.009717   8.749336  90.080596 -31.290114  10.200121 -12.821543 101.066436  -0.001975   0.000391  -3.605556   5.997201  -0.955640  -0.875402  -0.000006   0.000005 -35.056069  -3.212190  -4.929291 101.587376   0.000333   0.000430  -3.329927  -0.667046  -0.025435   3.504583  -0.002080   0.001397
 -2.780812   0.473800   5.718823  45.850740 -15.563629  19.187855  35.384083  -5.989237  -6.663345  -1.362818  -2.172918  -3.197173  -8.809284  -3.534500  -3.816434  -9.612648  33.835035   9.937431 -13.335288  32.630427  24.406032  -0.000674   5.331771   0.000814  -2.438984  10.468869 -55.414776  -0.853659 -45.169453  -3.602306   1.819377 -24.347108 -13.535757  -0.000634 -20.993342   0.000028  10.007825   8.685268  90.064222 -31.442484  10.265402 -12.728741 101.494374  -0.001987   0.000796  -3.550422   6.072773  -0.991625  -0.835801  -0.000042   0.000072 -35.067392  -2.996981  -4.888184 101.965755   0.000532   0.000608  -3.377423  -0.760014  -0.045944   2.943137  -0.002153   0.001162
 -2.781013   0.473947   5.717543  45.836457 -15.766832  19.254296  35.648766  -5.909714  -6.634556  -1.468450  -2.108591  -3.290851  -8.842066  -3.458424  -3.818890  -9.705474  34.033584  10.006599 -13.242657  32.681424  24.214360  -0.000581   5.176465   0.000762  -2.500089  10.359609 -56.192421  -1.083385 -45.133004  -3.770732   1.873128 -24.275457 -13.356692  -0.000625 -21.075118  -0.000005  10.006286   8.621861  90.051177 -31.633328  10.319838 -12.619820 101.926346  -0.002287   0.000886  -3.504576   6.144460  -1.024792  -0.819855  -0.000060   0.000075 -35.098621  -2.766976  -4.756984 102.296182   0.000557   0.000712  -3.421554  -0.848291  -0.066638   2.429085  -0.002011   0.000954
 -2.781213   0.474085   5.716300  45.821304 -15.961246  19.323025  35.900306  -5.843667  -6.610456  -1.558509  -2.042819  -3.377373  -8.861774  -3.392964  -3.820354  -9.798115  34.216694  10.065572 -13.155522  32.730427  24.026359  -0.000491   5.033897   0.000701  -2.533071  10.280680 -56.905269  -1.305697 -45.103083  -3.928119   1.916137 -24.193195 -13.186561  -0.000613 -21.156311  -0.000031  10.005034   8.550632  90.040784 -31.815295  10.374570 -12.518513 102.337073  -0.002461   0.000946  -3.458608   6.211005  -1.055923  -0.795018  -0.000086   0.000086 -35.128276  -2.560724  -4.636372 102.599698   0.000520   0.000775  -3.463219  -0.930270  -0.085704   1.957141  -0.001794   0.000762
 -2.781414   0.474213   5.715102  45.808554 -16.146884  19.392708  36.139705  -5.780778  -6.587667  -1.641101  -1.978938  -3.459332  -8.877729  -3.332411  -3.821491  -9.887841  34.385785  10.117033 -13.072929  32.776253  23.844755  -0.000411   4.901534   0.000639  -2.551985  10.218919 -57.571304  -1.519399 -45.078363  -4.077325   1.951262 -24.111284 -13.026413  -0.000589 -21.229701  -0.000048  10.004015   8.471098  90.032505 -31.990943  10.427324 -12.422376 102.723060  -0.002537   0.000981  -3.415585   6.273059  -1.085057  -0.771849  -0.000103   0.000092 -35.158125  -2.371419  -4.522980 102.880158   0.000459   0.000807  -3.502253  -1.006585  -0.103430   1.524384  -0.001560   0.000592
 -2.781611   0.474267   5.713803  45.739987 -16.348342  19.474723  36.464391  -5.737688  -6.547427  -1.771573  -1.921622  -3.574286  -8.886604  -3.233551  -3.825907  -9.989844  34.643615  10.161827 -13.001367  32.753523  23.669445  -0.000346   4.687914   0.000621  -2.466887  10.220330 -58.307105  -1.773213 -45.057017  -4.280723   2.021859 -24.009892 -12.831913  -0.000552 -21.281551  -0.000058  10.003143   8.355521  90.025914 -32.138641  10.458709 -12.352799 103.291411  -0.003062   0.001131  -3.333014   6.337049  -1.090994  -0.742326  -0.000148   0.000104 -35.144779  -2.193925  -4.435644 103.239468   0.000344   0.000900  -3.440211  -1.103048  -0.133237   1.139887  -0.001323   0.000514
